<?xml version="1.0" encoding="UTF-8"?>
<!-- Generated by Pixelmator Pro 3.4.3 -->
<svg width="189" height="189" viewBox="0 0 189 189" xmlns="http://www.w3.org/2000/svg">
    <g id="g1">
        <path id="path1" fill="#000000" stroke="none"
            d="M 7.567017 -0.588654 L 181.610107 -0.588654 C 185.789337 -0.588654 189.177216 2.799255 189.177216 6.978424 L 189.177216 181.021545 C 189.177216 185.200714 185.789337 188.588623 181.610107 188.588623 L 7.567017 188.588623 C 3.387848 188.588623 -6.1e-05 185.200714 -6.1e-05 181.021545 L -6.1e-05 6.978424 C -6.1e-05 2.799255 3.387848 -0.588654 7.567017 -0.588654 Z" />
        <path id="path2" fill="#ffffff" stroke="none"
            d="M 26.413971 130.954468 L 26.413971 66.213348 L 35.068542 65.452301 C 35.410706 68.083488 35.711578 71.186623 35.971161 74.761719 C 36.218933 78.325012 36.407715 81.994507 36.537506 85.770203 C 36.667286 89.557678 36.732178 93.150459 36.732178 96.548553 L 36.732178 96.548553 L 36.732178 134.653442 C 36.307423 134.818619 35.646683 135.007401 34.749954 135.219788 C 33.865036 135.432175 32.956516 135.538361 32.024399 135.538361 L 32.024399 135.538361 C 30.148352 135.538361 28.744263 135.178482 27.812134 134.45874 C 26.880026 133.739014 26.413971 132.570923 26.413971 130.954468 L 26.413971 130.954468 Z M 87.827744 61.381653 L 87.827744 126.105072 L 79.031586 126.866119 C 78.182068 119.73951 77.698311 112.459526 77.580322 105.026154 C 77.450531 97.592781 77.385635 90.389496 77.385635 83.41629 L 77.385635 83.41629 L 77.385635 57.682648 C 77.892998 57.505661 78.571449 57.310989 79.420975 57.098633 C 80.270493 56.886246 81.202614 56.78006 82.217331 56.78006 L 82.217331 56.78006 C 84.093376 56.78006 85.497459 57.145828 86.429581 57.87735 C 87.361687 58.597092 87.827744 59.765198 87.827744 61.381653 L 87.827744 61.381653 Z M 78.270569 124.706879 L 87.827744 122.282196 L 87.827744 121.768951 L 87.827744 133.503021 C 87.060814 134.092987 86.087402 134.600357 84.907501 135.025116 C 83.715813 135.449875 82.394325 135.662262 80.943054 135.662262 L 80.943054 135.662262 C 78.913612 135.662262 77.173256 135.261093 75.721985 134.45874 C 74.282501 133.644608 72.966911 132.175644 71.775208 130.051819 L 71.775208 130.051819 L 47.563675 89.274475 C 46.289371 86.985474 44.885288 84.460503 43.351425 81.699554 C 41.829361 78.938568 40.389889 76.307381 39.033005 73.806 C 37.664322 71.292816 36.602406 69.227989 35.84726 67.611511 L 35.84726 67.611511 L 26.413971 70.036224 L 26.413971 58.95697 C 27.086508 58.272629 28.042227 57.718063 29.281128 57.293304 C 30.508219 56.868546 31.847403 56.656158 33.298676 56.656158 L 33.298676 56.656158 C 35.328106 56.656158 37.068455 57.063217 38.51973 57.87735 C 39.959213 58.679672 41.274807 60.142746 42.466507 62.266571 L 42.466507 62.266571 L 66.801926 103.043915 C 68.158821 105.332916 69.580605 107.857903 71.067276 110.618866 C 72.553947 113.379852 73.934433 116.01693 75.208725 118.53009 C 76.483017 121.031494 77.503632 123.090424 78.270569 124.706879 L 78.270569 124.706879 Z M 134.976563 74.372345 L 134.976563 74.372345 L 134.976563 74.372345 C 140.250717 74.372345 144.988007 75.499153 149.188446 77.752777 C 153.388885 80.006378 156.704407 83.422188 159.13501 88.000214 C 161.553818 92.590019 162.763214 98.412811 162.763214 105.468597 L 162.763214 105.468597 C 162.763214 112.607002 161.506607 118.46521 158.993408 123.043213 C 156.49202 127.633041 153.034927 131.031143 148.622101 133.237549 C 144.197479 135.455765 139.053116 136.56488 133.188995 136.56488 L 133.188995 136.56488 C 129.035751 136.56488 125.277763 136.05162 121.915054 135.025116 C 118.56414 134.010391 115.826775 132.907181 113.702957 131.715485 L 113.702957 131.715485 C 111.921303 130.523788 110.688301 129.420578 110.003967 128.405853 C 109.319618 127.379364 108.977448 125.975288 108.977448 124.193634 L 108.977448 124.193634 L 108.977448 81.770325 L 119.171799 81.770325 L 119.171799 124.193634 C 120.446091 125.12574 122.316231 126.016571 124.782211 126.866119 C 127.248207 127.715622 130.050461 128.140381 133.188995 128.140381 L 133.188995 128.140381 C 138.970505 128.140381 143.625214 126.317436 147.153107 122.671539 C 150.681015 119.013863 152.444977 113.279549 152.444977 105.468597 L 152.444977 105.468597 C 152.444977 97.563286 150.657425 91.805382 147.082336 88.194885 C 143.519043 84.584389 138.976425 82.779144 133.454468 82.779144 L 133.454468 82.779144 C 130.056366 82.779144 127.041725 83.439888 124.410553 84.761383 C 121.767578 86.071075 119.596558 87.575439 117.897491 89.274475 L 117.897491 89.274475 L 115.986053 80.991608 C 117.862099 79.552116 120.369392 78.089027 123.507935 76.602356 C 126.658264 75.115685 130.48114 74.372345 134.976563 74.372345 Z M 119.171799 56.019012 L 119.171799 83.805664 L 108.977448 83.805664 L 108.977448 52.320007 C 109.402222 52.154831 110.062965 51.966049 110.959686 51.753693 C 111.856415 51.54129 112.812134 51.435089 113.826843 51.435089 L 113.826843 51.435089 C 115.608498 51.435089 116.947685 51.794968 117.844406 52.514709 C 118.729332 53.234436 119.171799 54.402542 119.171799 56.019012 L 119.171799 56.019012 Z" />
    </g>
</svg>
