<svg xmlns="http://www.w3.org/2000/svg" version="1.1" xmlns:xlink="http://www.w3.org/1999/xlink"
	xmlns:svgjs="http://svgjs.dev/svgjs" width="100%" height="100%" viewBox="0 0 1000 600">
	<rect width="1000" height="600" x="0" y="0" fill="#" />
	<g>
		<rect width="333.3333333333333" height="333.3333333333333" rx="13.333333333333334" ry="13.333333333333334"
			y="242.47415709434614" fill="#ffffff"
			transform="matrix(0.5675318393748304,0,0,0.5675318393748303,0,67.79953665409327)" x="220.25184631347653" />
		<path
			d="M266.7937785471254 474.2551840932616L266.7937785471254 360.180336399615L282.04325928036576 358.8393800161194Q282.9476252134209 365.79364219099176 283.6336959212558 375.2427069398094Q284.28858159691646 384.6605866564527 284.6316169508339 394.6397969522337Q284.9746523047514 404.65019228018906 284.9746523047514 413.63148154639197L284.9746523047514 413.63148154639197L284.9746523047514 480.7728558176936Q283.85199114647605 481.209446268134 281.48192870122807 481.7707768472717Q279.14305128815437 482.3321074264093 276.67943374638344 482.3321074264093L276.67943374638344 482.3321074264093Q271.72101363066724 482.3321074264093 269.2573960888963 480.42982046377614Q266.7937785471254 478.52753350114284 266.7937785471254 474.2551840932616L266.7937785471254 474.2551840932616ZM375.0058401920007 351.66682261602676L375.0058401920007 465.7104852774991L359.5068792013658 467.0514416609947Q357.2615568848151 448.21568222770804 356.9497065630719 428.56911195788916Q356.60667120915446 408.92254168807034 356.60667120915446 390.4921876730498L356.60667120915446 390.4921876730498L356.60667120915446 345.14915089159484Q357.94762759265 344.68137540898005 360.19294990920076 344.1200448298424Q362.43827222575146 343.5587142507047 365.1201849927426 343.5587142507047L365.1201849927426 343.5587142507047Q370.0786051084588 343.5587142507047 372.54222265022975 345.4921862455123Q375.0058401920007 347.39447320814554 375.0058401920007 351.66682261602676L375.0058401920007 351.66682261602676ZM358.16592281787024 463.2468677357282L375.0058401920007 458.97451832784697L375.0058401920007 458.0701523947918L375.0058401920007 478.7458287263631Q372.97881310067015 480.30508033507886 369.8603098832386 481.4277414933542Q366.71062163363274 482.55040265162955 362.87486267619187 482.55040265162955L362.87486267619187 482.55040265162955Q357.5110371422096 482.55040265162955 353.6752781847688 480.42982046377614Q349.87070425950225 478.27805324374833 346.7210160098964 472.6647474523715L346.7210160098964 472.6647474523715L304.05989199543257 400.81443332274824Q300.6919085206065 394.764537080931 296.6378543379455 387.46723955214117Q292.61498518745873 380.16994202335127 289.0287064874124 373.55871520239634Q285.41124275519184 366.91630334926714 283.41540069603565 362.64395394138586L283.41540069603565 362.64395394138586L266.7937785471254 366.91630334926714L266.7937785471254 347.39447320814554Q268.5713253810614 345.5857413420352 271.8457537593645 344.46308018375987Q275.0889971054933 343.3404190254845 278.9247560629342 343.3404190254845L278.9247560629342 343.3404190254845Q284.28858159691646 343.3404190254845 288.1243405543573 345.4921862455123Q291.92891447962376 347.6127684333657 295.07860272922966 353.2260742247426L295.07860272922966 353.2260742247426L337.95802196891367 425.07638835436586Q341.54430066896003 431.1262845961831 345.47361472292374 438.42358212497294Q349.40292877688756 445.7208796537628 352.77091225171364 452.36329150689204Q356.1388957265397 458.97451832784697 358.16592281787024 463.2468677357282L358.16592281787024 463.2468677357282ZM458.0827659043776 374.55663623197444L458.0827659043776 374.55663623197444L458.0827659043776 374.55663623197444Q472.0224752862967 374.55663623197444 483.124346740353 380.5129773772688Q494.22621819440946 386.46931852256307 500.6503348223185 398.56911100619755Q507.0432664180532 410.7000885220063 507.0432664180532 429.3487377622471L507.0432664180532 429.3487377622471Q507.0432664180532 448.21568222770804 500.40085456492386 460.3154747113425Q493.789627743969 472.44645222715127 482.1264257107749 478.27805324374833Q470.4320386454065 484.1408392925197 454.9330776547717 484.1408392925197L454.9330776547717 484.1408392925197Q443.9559463294126 484.1408392925197 435.0682121597326 481.4277414933542Q426.211663022227 478.7458287263631 420.5983572308501 475.59614047675717L420.5983572308501 475.59614047675717Q415.8894173725285 472.44645222715127 414.0806855064182 469.76453946016017Q412.2719536403079 467.0514416609947 412.2719536403079 462.34250180267304L412.2719536403079 462.34250180267304L412.2719536403079 387.5919796808384L430.2345321727137 387.5919796808384L430.2345321727137 462.34250180267304Q433.60251564753975 464.80611934444397 440.1201873719718 467.0514416609947Q446.6378590964037 469.2967639775454 454.9330776547717 469.2967639775454L454.9330776547717 469.2967639775454Q470.2137434201864 469.2967639775454 479.53806804030677 459.6605890356819Q488.86239266042713 449.99322906164406 488.86239266042713 429.3487377622471L488.86239266042713 429.3487377622471Q488.86239266042713 408.4547662054556 479.4133279116095 398.912146360115Q469.9954481949662 389.3695265147744 455.40085313738643 389.3695265147744L455.40085313738643 389.3695265147744Q446.4195638711836 389.3695265147744 439.46530169631114 392.86225011829777Q432.4798544892644 396.3237886896468 427.989209856163 400.81443332274824L427.989209856163 400.81443332274824L424.6212263813369 386.2198382651685Q429.5796464970531 382.415264339902 437.874865055421 378.48595028593826Q446.20126864596335 374.55663623197444 458.0827659043776 374.55663623197444ZM430.2345321727137 342.2177578672092L430.2345321727137 391.1782583808847L412.2719536403079 391.1782583808847L412.2719536403079 335.7000861427772Q413.3946147985833 335.2634956923368 415.7646772438313 334.7021651131991Q418.13473968907925 334.1408345340614 420.81665245607036 334.1408345340614L420.81665245607036 334.1408345340614Q425.52559231439204 334.1408345340614 427.89565475964 336.04312149669465Q430.2345321727137 337.9454084593279 430.2345321727137 342.2177578672092L430.2345321727137 342.2177578672092Z "
			fill="#000000" transform="matrix(0.5675318393748304,0,0,0.5675318393748303,0,67.79953665409327)" />
		<path
			d="M636.918519174792 473.69258601972075L636.918519174792 353.12567320127295L653.0358566182641 351.70840221953614Q653.9916905361796 359.0584354504038 654.7168059221846 369.0452519031074Q655.4089615179165 378.99910856553794 655.7715192109189 389.5462414528817Q656.1340769039213 400.1263341304984 656.1340769039213 409.6187537291077L656.1340769039213 409.6187537291077L656.1340769039213 480.5811821867671Q654.9475244540952 481.0426192505884 652.442580393351 481.6358954755015Q649.9705961228798 482.22917170041455 647.3667726913169 482.22917170041455L647.3667726913169 482.22917170041455Q642.126166037918 482.22917170041455 639.522342606355 480.21862449376465Q636.918519174792 478.2080772871148 636.918519174792 473.69258601972075L636.918519174792 473.69258601972075ZM751.2889914219254 344.12765045675786L751.2889914219254 464.6616034849327L734.9079756562697 466.0788744666695Q732.5348707566174 446.1711611418082 732.2052728538879 425.4064932698503Q731.8427151608854 404.6418253978924 731.8427151608854 385.16258934657947L731.8427151608854 385.16258934657947L731.8427151608854 337.2390542897114Q733.2599861426222 336.7446574356172 735.6330910422746 336.15138121070413Q738.0061959419269 335.5581049857911 740.8407379054005 335.5581049857911L740.8407379054005 335.5581049857911Q746.0813445587994 335.5581049857911 748.6851679903624 337.6016119827139Q751.2889914219254 339.6121591893638 751.2889914219254 344.12765045675786L751.2889914219254 344.12765045675786ZM733.4907046745328 462.0577800533697L751.2889914219254 457.5422887859757L751.2889914219254 456.5864548680602L751.2889914219254 478.4387958190254Q749.1466050541837 480.08678533267283 745.8506260268888 481.273337782499Q742.5216872093209 482.4598902323252 738.4676330057482 482.4598902323252L738.4676330057482 482.4598902323252Q732.798549078801 482.4598902323252 728.7444948752283 480.21862449376465Q724.7234004619285 477.94439896493117 721.3944616443606 472.0116367158003L721.3944616443606 472.0116367158003L676.3054685509661 396.0722799269256Q672.7458112014878 389.67808061397346 668.4610384660043 381.96548969010337Q664.2092255207939 374.25289876623333 660.4188496394047 367.2654232283681Q656.5955139677426 360.24498790022994 654.4860873902738 355.7294966328359L654.4860873902738 355.7294966328359L636.918519174792 360.24498790022994L636.918519174792 339.6121591893638Q638.7972272203501 337.70049135353275 642.2580051990097 336.51393890370656Q645.6858233873965 335.3273864538804 649.7398775909692 335.3273864538804L649.7398775909692 335.3273864538804Q655.4089615179165 335.3273864538804 659.4630157214891 337.6016119827139Q663.4841101347889 339.8428777212744 666.8130489523568 345.7756399704053L666.8130489523568 345.7756399704053L712.1327605776619 421.71499675928004Q715.923136459051 428.1091960722321 720.0760700334425 435.8217869961022Q724.2290036078342 443.5343779199723 727.7886609573127 450.55481324811046Q731.3483183067912 457.5422887859757 733.4907046745328 462.0577800533697L733.4907046745328 462.0577800533697ZM892.0272958874181 426.23048802667404L892.0272958874181 426.23048802667404L892.0272958874181 426.23048802667404Q892.0272958874181 443.7980562421559 885.3694182522823 456.85013319024375Q878.7445004074195 469.90221013833155 866.6152975869743 477.0215248372886Q854.519054556802 484.1408395362456 838.1380387911463 484.1408395362456L838.1380387911463 484.1408395362456Q821.7899828157636 484.1408395362456 809.5619006244993 477.0215248372886Q797.3338184332353 469.90221013833155 790.6759407980995 456.85013319024375Q784.0510229532368 443.7980562421559 784.0510229532368 426.23048802667404L784.0510229532368 426.23048802667404Q784.0510229532368 408.4322012792815 790.8077799591914 395.4790037020125Q797.564536965146 382.55876591501647 809.7926191564101 375.43945121605947Q822.0207013476742 368.32013651710247 838.1380387911463 368.32013651710247L838.1380387911463 368.32013651710247Q854.2883360248914 368.32013651710247 866.3845790550637 375.43945121605947Q878.480822085236 382.55876591501647 885.2705388814635 395.4790037020125Q892.0272958874181 408.4322012792815 892.0272958874181 426.23048802667404ZM838.1380387911463 383.97603689675327L838.1380387911463 383.97603689675327L838.1380387911463 383.97603689675327Q822.2514198795848 383.97603689675327 812.8908394420672 395.2482851701019Q803.4972992142767 406.52053344345046 803.4972992142767 426.23048802667404L803.4972992142767 426.23048802667404Q803.4972992142767 446.1711611418082 812.6271611198837 457.31157025406503Q821.7899828157636 468.45197936632184 838.1380387911463 468.45197936632184L838.1380387911463 468.45197936632184Q854.2883360248914 468.45197936632184 863.4181979304982 457.1797310929732Q872.5480598361052 445.9074828196247 872.5480598361052 426.23048802667404L872.5480598361052 426.23048802667404Q872.5480598361052 406.52053344345046 863.4181979304982 395.2482851701019Q854.2883360248914 383.97603689675327 838.1380387911463 383.97603689675327ZM921.6911071330723 452.3346419228497L921.6911071330723 418.3860579417121L940.6759463302909 418.3860579417121L940.6759463302909 451.14808947302356Q940.6759463302909 460.6405090716329 946.1143117253275 464.56272411411385Q951.585636910637 468.45197936632184 961.0780565092465 468.45197936632184L961.0780565092465 468.45197936632184Q965.0991509225463 468.45197936632184 970.1090390440345 467.03470838458503Q975.0859673752499 465.6174374028482 978.4149061928176 463.70576956701717L978.4149061928176 463.70576956701717Q979.8321771745544 465.1560003390269 981.0187296243806 467.26542691649564Q982.2052820742068 469.40781328423736 982.2052820742068 472.27531503798394L982.2052820742068 472.27531503798394Q982.2052820742068 477.4829619011099 976.0418012931653 480.81190071867775Q969.8453607218509 484.1408395362456 958.9356701415047 484.1408395362456L958.9356701415047 484.1408395362456Q942.3239358439383 484.1408395362456 932.0075214885053 476.757846515105Q921.6911071330723 469.40781328423736 921.6911071330723 452.3346419228497L921.6911071330723 452.3346419228497ZM974.5915705211556 389.44736208206285L931.4142452635923 389.44736208206285L931.4142452635923 373.79146170241205L979.6014586426437 373.79146170241205Q980.2936142383758 374.7143358300546 981.0187296243806 376.8567221977963Q981.7108852201126 378.99910856553794 981.7108852201126 381.3722134651903L981.7108852201126 381.3722134651903Q981.7108852201126 385.16258934657947 979.8321771745544 387.30497571432113Q977.9205093387235 389.44736208206285 974.5915705211556 389.44736208206285L974.5915705211556 389.44736208206285ZM940.6759463302909 346.50075535641014L940.6759463302909 425.5053726406691L921.6911071330723 425.5053726406691L921.6911071330723 339.6121591893638Q922.8776595828984 339.11776233526956 925.3496438533697 338.52448611035646Q927.8545879141137 337.93120988544337 930.6891298775873 337.93120988544337L930.6891298775873 337.93120988544337Q935.6990179990756 337.93120988544337 938.1710022695468 339.97471688236624Q940.6759463302909 341.98526408901614 940.6759463302909 346.50075535641014L940.6759463302909 346.50075535641014ZM1096.3450357894299 427.18632194458957L1016.6153031191656 438.32673105684637L1015.6594692012501 423.36298627292746L1087.3140532546417 413.63984814240746Q1086.3911791269988 400.5877711943196 1078.3160305101264 392.1830246747176Q1070.240881893254 383.74531836484266 1056.0022524953397 383.74531836484266L1056.0022524953397 383.74531836484266Q1041.3021860336044 383.74531836484266 1031.6779272739036 394.29245125218637Q1022.0536685142023 404.87254392980304 1022.0536685142023 424.54953872275365L1022.0536685142023 424.54953872275365L1022.0536685142023 429.79014537615257Q1023.7346178181227 448.7749845733712 1034.512469237377 458.629961864983Q1045.3232804469044 468.45197936632184 1064.0774011122126 468.45197936632184L1064.0774011122126 468.45197936632184Q1074.031257774643 468.45197936632184 1082.1064063915155 465.1560003390269Q1090.181555008388 461.8270615214591 1094.9277648076927 458.0366856400699L1094.9277648076927 458.0366856400699Q1097.5315882392556 459.68467515371736 1099.0806983820844 461.9259408922779Q1100.6298085249127 464.2001664211114 1100.6298085249127 467.03470838458503L1100.6298085249127 467.03470838458503Q1100.6298085249127 471.5501996519791 1095.5210410326058 475.47241469446Q1090.4122735402989 479.39462973694094 1081.9745672304239 481.7677346365933Q1073.5698207108217 484.1408395362456 1063.1215671942969 484.1408395362456L1063.1215671942969 484.1408395362456Q1044.861843383083 484.1408395362456 1031.4472087419927 477.4829619011099Q1018.0325741009025 470.82508426597417 1010.7814202408537 457.67412794706746Q1003.5632261710779 444.4902118378878 1003.5632261710779 425.5053726406691L1003.5632261710779 425.5053726406691Q1003.5632261710779 411.99185862876004 1007.4854412135588 401.41176595114337Q1011.3746964657668 390.86463306379966 1018.395131793905 383.514599832932Q1025.38260733177 376.1645666020643 1035.10574546229 372.2423515595834Q1044.861843383083 368.32013651710247 1056.2329710272506 368.32013651710247L1056.2329710272506 368.32013651710247Q1070.702318957075 368.32013651710247 1081.7438486985134 374.48361729814394Q1092.7853784399508 380.6470980791854 1099.0806983820844 391.68862782062337Q1105.3760183242175 402.7301575620613 1105.3760183242175 416.9687869599753L1105.3760183242175 416.9687869599753Q1105.3760183242175 422.17643382310126 1103.0029134245651 424.4506593519348Q1100.6298085249127 426.6919250904953 1096.3450357894299 427.18632194458957L1096.3450357894299 427.18632194458957ZM1196.9712754927432 398.2146662946673L1262.2316602331825 398.2146662946673L1262.2316602331825 413.8705666743181L1196.9712754927432 413.8705666743181L1196.9712754927432 398.2146662946673ZM1234.9409538871805 413.8705666743181L1234.9409538871805 413.8705666743181L1242.5217056499591 402.00504217605646Q1258.672002883704 402.00504217605646 1269.3509749321397 407.34452820027417Q1280.029946980575 412.68401422449193 1285.3694330047929 421.4842782273694Q1290.7089190290108 430.25158243997384 1290.7089190290108 441.16127302032L1290.7089190290108 441.16127302032Q1290.7089190290108 462.7828954393746 1275.1518980201786 473.1981891656265Q1259.6278368016197 483.64644268215136 1230.8868996836077 483.64644268215136L1230.8868996836077 483.64644268215136Q1224.4927003706557 483.64644268215136 1218.0985010577037 483.28388498914893Q1211.6713419544785 482.95428708641947 1205.507861173437 481.9984531685039Q1199.3443803923956 481.0426192505884 1193.6423366751756 479.6253482688516L1193.6423366751756 479.6253482688516Q1183.6884800127445 476.757846515105 1183.6884800127445 468.7156576885054L1183.6884800127445 468.7156576885054L1183.6884800127445 347.1929109521421Q1183.6884800127445 343.40253507075295 1185.6990272193948 341.2601487030112Q1187.7095744260446 339.11776233526956 1191.4999503074337 338.194888207627L1191.4999503074337 338.194888207627Q1199.575098924306 335.8217833079746 1208.704960829913 334.964828760878Q1217.83482273552 334.1408340040543 1228.2830762520448 334.1408340040543L1228.2830762520448 334.1408340040543Q1255.1123455342254 334.1408340040543 1270.0431305278717 343.7650927637554Q1285.0068753117903 353.35639173318356 1285.0068753117903 373.06634631640713L1285.0068753117903 373.06634631640713Q1285.0068753117903 383.02020297883774 1280.1288263513939 391.45790928871276Q1275.2837371812702 399.8956155985877 1264.4729259717433 404.9714233006219Q1253.6950745524887 410.080190792929 1235.6331094829125 410.080190792929L1235.6331094829125 410.080190792929L1233.5236829054438 398.2146662946673Q1249.1795832850948 398.2146662946673 1257.2547319019673 391.68862782062337Q1265.2969207285669 385.16258934657947 1265.2969207285669 373.5277833802284L1265.2969207285669 373.5277833802284Q1265.2969207285669 361.66225888196675 1255.9363402910494 355.8613357939277Q1246.5757598535315 350.06041270588867 1228.2830762520448 350.06041270588867L1228.2830762520448 350.06041270588867Q1220.2079276351724 350.06041270588867 1214.044446854131 350.6536889308017Q1207.8809660730894 351.2469651557148 1202.6733192099637 352.16983928335736L1202.6733192099637 352.16983928335736L1202.6733192099637 465.1560003390269Q1208.3424031369104 466.3425527888531 1215.8242755288702 467.03470838458503Q1223.3061479208295 467.7598237705899 1230.8868996836077 467.7598237705899L1230.8868996836077 467.7598237705899Q1250.5968542668315 467.7598237705899 1260.8143892514458 461.10194613545417Q1270.998964445787 454.4770282905914 1270.998964445787 440.6998359564987L1270.998964445787 440.6998359564987Q1270.998964445787 428.37287439441576 1261.8691025401804 421.12172053436694Q1252.739240634573 413.8705666743181 1234.9409538871805 413.8705666743181ZM1424.2949490052733 426.23048802667404L1424.2949490052733 426.23048802667404L1424.2949490052733 426.23048802667404Q1424.2949490052733 443.7980562421559 1417.6700311604104 456.85013319024375Q1411.0121535252747 469.90221013833155 1398.9159104951023 477.0215248372886Q1386.8196674649303 484.1408395362456 1370.4386516992745 484.1408395362456L1370.4386516992745 484.1408395362456Q1354.0576359336187 484.1408395362456 1341.8295537423546 477.0215248372886Q1329.6344313413633 469.90221013833155 1322.9765537062276 456.85013319024375Q1316.3186760710919 443.7980562421559 1316.3186760710919 426.23048802667404L1316.3186760710919 426.23048802667404Q1316.3186760710919 408.4322012792815 1323.1083928673197 395.4790037020125Q1329.8651498732743 382.55876591501647 1342.0932320645384 375.43945121605947Q1354.2883544655292 368.32013651710247 1370.4386516992745 368.32013651710247L1370.4386516992745 368.32013651710247Q1386.5889489330198 368.32013651710247 1398.6851919631918 375.43945121605947Q1410.7814349933642 382.55876591501647 1417.5381919993188 395.4790037020125Q1424.2949490052733 408.4322012792815 1424.2949490052733 426.23048802667404ZM1370.4386516992745 383.97603689675327L1370.4386516992745 383.97603689675327L1370.4386516992745 383.97603689675327Q1354.552032787713 383.97603689675327 1345.1584925599223 395.2482851701019Q1335.7979121224048 406.52053344345046 1335.7979121224048 426.23048802667404L1335.7979121224048 426.23048802667404Q1335.7979121224048 446.1711611418082 1344.9277740280118 457.31157025406503Q1354.0576359336187 468.45197936632184 1370.4386516992745 468.45197936632184L1370.4386516992745 468.45197936632184Q1386.5889489330198 468.45197936632184 1395.7188108386263 457.1797310929732Q1404.8486727442332 445.9074828196247 1404.8486727442332 426.23048802667404L1404.8486727442332 426.23048802667404Q1404.8486727442332 406.52053344345046 1395.7188108386263 395.2482851701019Q1386.5889489330198 383.97603689675327 1370.4386516992745 383.97603689675327ZM1486.7207917822388 419.11117332771704L1486.7207917822388 419.11117332771704L1490.2804491317174 417.4302240237966Q1500.0035872622375 404.87254392980304 1508.5401729429313 393.96285334945685Q1517.109718413898 383.02020297883774 1526.1077411584129 369.9681260307499L1526.1077411584129 369.9681260307499Q1527.0635750763286 369.7374074988393 1527.52501214015 369.7374074988393Q1528.0194089942443 369.7374074988393 1528.7115645899762 369.7374074988393L1528.7115645899762 369.7374074988393Q1533.7214527114643 369.7374074988393 1536.5559946749381 372.01163302767276Q1539.3905366384115 374.25289876623333 1539.3905366384115 378.04327464762247L1539.3905366384115 378.04327464762247Q1539.3905366384115 380.6470980791854 1538.335823349677 383.02020297883774Q1537.2811100609429 385.3933078784901 1534.9080051612905 388.4915281641473L1534.9080051612905 388.4915281641473Q1526.832856544418 398.44538482657794 1518.395150234543 408.6629198111922Q1509.9904037149408 418.8804547958064 1501.9152550980684 428.60359292632637L1501.9152550980684 428.60359292632637L1495.751774317027 433.8112397894523Q1486.9515103141498 445.44604575580337 1477.6898092474507 457.90484647897813Q1468.461067971025 470.3636472021529 1459.8915225000583 482.22917170041455L1459.8915225000583 482.22917170041455Q1459.6608039681478 482.22917170041455 1458.3753721475027 482.22917170041455Q1457.056980536585 482.22917170041455 1456.5955434727634 482.22917170041455L1456.5955434727634 482.22917170041455Q1451.124218287454 482.22917170041455 1448.388555694799 479.8560668007622Q1445.6528931021444 477.4829619011099 1445.6528931021444 473.9233045516314L1445.6528931021444 473.9233045516314Q1445.6528931021444 472.0116367158003 1446.5098476492408 469.90221013833155Q1447.3338424060648 467.7598237705899 1450.3991029014487 463.96944788920075L1450.3991029014487 463.96944788920075Q1458.9686483724158 452.56536045476037 1468.461067971025 441.5238307133224Q1477.9534875696345 430.48230097188446 1486.7207917822388 419.11117332771704ZM1498.3555977485898 419.5726103915383L1498.3555977485898 419.5726103915383L1502.6074106938004 422.4401121452849Q1512.3635086145932 435.2285107711891 1522.1855261159321 447.6873114943639Q1532.0405034075438 460.14611221753864 1541.763641538064 472.73675210180517L1541.763641538064 472.73675210180517Q1541.3022044742424 477.2522433691992 1538.6983810426796 479.8560668007622Q1536.0945576111167 482.4598902323252 1531.8097848756333 482.4598902323252L1531.8097848756333 482.4598902323252Q1528.0194089942443 482.4598902323252 1525.4155855626814 480.4493430256753Q1522.7788023408452 478.4387958190254 1519.4828233135504 474.154023083542L1519.4828233135504 474.154023083542Q1512.3635086145932 464.2001664211114 1504.3872393685397 453.02679751858165Q1496.443929912759 441.88638840632484 1489.3246152138017 432.16325027580484L1489.3246152138017 432.16325027580484L1483.886249818765 427.18632194458957Q1473.4379963022402 414.595682060323 1464.4070137674526 403.1915946258826Q1455.4089910229372 391.8204669817152 1445.9165714243281 379.72422395154285L1445.9165714243281 379.72422395154285Q1446.8394455519706 374.9780141522382 1449.4762287738063 372.3412309304023Q1452.0800522053692 369.7374074988393 1455.8704280867587 369.7374074988393L1455.8704280867587 369.7374074988393Q1459.8915225000583 369.7374074988393 1462.2646273997107 371.7479547054892Q1464.637732299363 373.79146170241205 1467.0108371990154 377.08744072970694L1467.0108371990154 377.08744072970694Q1474.1301518979726 386.5798603283163 1481.974581982934 397.85210860166484Q1489.819012067896 409.12435687501346 1498.3555977485898 419.5726103915383Z "
			fill="#ffffff" transform="matrix(0.5675318393748304,0,0,0.5675318393748303,0,67.79953665409327)" />
	</g>
</svg>
