<?xml version="1.0" encoding="UTF-8"?>
<!-- Generated by Pixelmator Pro 3.4.3 -->
<svg width="750" height="190" viewBox="0 0 750 190" xmlns="http://www.w3.org/2000/svg">
    <g id="g1">
        <path id="path1" fill="#ffffff" stroke="none"
            d="M 7.567017 0.411346 L 181.610107 0.411346 C 185.789337 0.411346 189.177216 3.799255 189.177216 7.978424 L 189.177216 182.021545 C 189.177216 186.200714 185.789337 189.588623 181.610107 189.588623 L 7.567017 189.588623 C 3.387848 189.588623 -6.1e-05 186.200714 -6.1e-05 182.021545 L -6.1e-05 7.978424 C -6.1e-05 3.799255 3.387848 0.411346 7.567017 0.411346 Z" />
        <path id="path2" fill="#000000" stroke="none"
            d="M 26.413971 131.954468 L 26.413971 67.213348 L 35.068542 66.452301 C 35.410706 69.083486 35.711578 72.186625 35.971161 75.761719 C 36.218933 79.325012 36.407715 82.994507 36.537506 86.770203 C 36.667287 90.557678 36.732178 94.150462 36.732178 97.548553 L 36.732178 97.548553 L 36.732178 135.653442 C 36.307424 135.818624 35.646683 136.007406 34.749954 136.219788 C 33.865036 136.43217 32.956518 136.538361 32.024399 136.538361 L 32.024399 136.538361 C 30.148351 136.538361 28.744263 136.178487 27.812134 135.45874 C 26.880025 134.739014 26.413971 133.570923 26.413971 131.954468 L 26.413971 131.954468 Z M 87.827744 62.381653 L 87.827744 127.105072 L 79.031586 127.866119 C 78.182068 120.739512 77.698313 113.459524 77.580322 106.026154 C 77.450531 98.592784 77.385635 91.389496 77.385635 84.41629 L 77.385635 84.41629 L 77.385635 58.682648 C 77.893 58.505666 78.571447 58.310994 79.420975 58.098633 C 80.270493 57.886251 81.202611 57.78006 82.217331 57.78006 L 82.217331 57.78006 C 84.093379 57.78006 85.497462 58.145823 86.429581 58.87735 C 87.361689 59.597097 87.827744 60.765198 87.827744 62.381653 L 87.827744 62.381653 Z M 78.270569 125.706879 L 87.827744 123.282196 L 87.827744 122.768951 L 87.827744 134.503021 C 87.060816 135.092987 86.087402 135.600352 84.907501 136.025116 C 83.71581 136.44988 82.394328 136.662262 80.943054 136.662262 L 80.943054 136.662262 C 78.913615 136.662262 77.173258 136.261088 75.721985 135.45874 C 74.282501 134.644613 72.966909 133.175639 71.775208 131.051819 L 71.775208 131.051819 L 47.563675 90.274475 C 46.289373 87.985474 44.88529 85.4605 43.351425 82.699554 C 41.829361 79.938568 40.389887 77.307383 39.033005 74.806 C 37.664322 72.292816 36.602407 70.227987 35.84726 68.611511 L 35.84726 68.611511 L 26.413971 71.036224 L 26.413971 59.95697 C 27.086507 59.272624 28.042226 58.718068 29.281128 58.293304 C 30.508219 57.86854 31.847402 57.656158 33.298676 57.656158 L 33.298676 57.656158 C 35.328105 57.656158 37.068456 58.063222 38.51973 58.87735 C 39.959213 59.679677 41.274806 61.142751 42.466507 63.266571 L 42.466507 63.266571 L 66.801926 104.043915 C 68.158819 106.332916 69.580602 108.8579 71.067276 111.618866 C 72.55395 114.379852 73.934433 117.016927 75.208725 119.53009 C 76.483017 122.031494 77.503632 124.090424 78.270569 125.706879 L 78.270569 125.706879 Z M 134.976563 75.372345 L 134.976563 75.372345 L 134.976563 75.372345 C 140.250712 75.372345 144.988007 76.499156 149.188446 78.752777 C 153.388885 81.006378 156.704407 84.42219 159.13501 89.000214 C 161.553813 93.590017 162.763214 99.412811 162.763214 106.468597 L 162.763214 106.468597 C 162.763214 113.607005 161.506612 119.46521 158.993408 124.043213 C 156.492025 128.633036 153.034922 132.031148 148.622101 134.237549 C 144.197479 136.45577 139.053111 137.56488 133.188995 137.56488 L 133.188995 137.56488 C 129.035746 137.56488 125.277766 137.051626 121.915054 136.025116 C 118.564143 135.010386 115.826777 133.907176 113.702957 132.715485 L 113.702957 132.715485 C 111.9213 131.523794 110.688304 130.420583 110.003967 129.405853 C 109.319621 128.379364 108.977448 126.975291 108.977448 125.193634 L 108.977448 125.193634 L 108.977448 82.770325 L 119.171799 82.770325 L 119.171799 125.193634 C 120.446091 126.125743 122.316228 127.016571 124.782211 127.866119 C 127.248205 128.715627 130.050466 129.140381 133.188995 129.140381 L 133.188995 129.140381 C 138.97051 129.140381 143.625214 127.317434 147.153107 123.671539 C 150.68102 120.013865 152.444977 114.279551 152.444977 106.468597 L 152.444977 106.468597 C 152.444977 98.563283 150.65743 92.805379 147.082336 89.194885 C 143.519043 85.584391 138.97642 83.779144 133.454468 83.779144 L 133.454468 83.779144 C 130.056366 83.779144 127.041728 84.439891 124.410553 85.761383 C 121.767578 87.071075 119.596558 88.575439 117.897491 90.274475 L 117.897491 90.274475 L 115.986053 81.991608 C 117.862101 80.552114 120.369395 79.08903 123.507935 77.602356 C 126.658264 76.115682 130.48114 75.372345 134.976563 75.372345 Z M 119.171799 57.019012 L 119.171799 84.805664 L 108.977448 84.805664 L 108.977448 53.320007 C 109.402222 53.154826 110.062968 52.966054 110.959686 52.753693 C 111.856415 52.54129 112.812134 52.435089 113.826843 52.435089 L 113.826843 52.435089 C 115.6085 52.435089 116.947688 52.794963 117.844406 53.514709 C 118.729335 54.234436 119.171799 55.402537 119.171799 57.019012 L 119.171799 57.019012 Z" />
        <path id="path3" fill="#ffffff" stroke="none"
            d="M 236.471527 131.635162 L 236.471527 63.209595 L 245.618622 62.405243 C 245.980275 65.186167 246.298279 68.465912 246.572632 72.244476 C 246.834493 76.010569 247.034027 79.888885 247.171234 83.879425 C 247.3084 87.882456 247.376984 91.679718 247.376984 95.27121 L 247.376984 95.27121 L 247.376984 135.544647 C 246.928029 135.719248 246.229675 135.918783 245.281921 136.14325 C 244.346639 136.367716 243.386414 136.47995 242.401245 136.47995 L 242.401245 136.47995 C 240.418437 136.47995 238.934448 136.099599 237.94928 135.338898 C 236.964111 134.578196 236.471527 133.343618 236.471527 131.635162 L 236.471527 131.635162 Z M 301.380432 58.102936 L 301.380432 126.509796 L 292.083679 127.314148 C 291.185791 119.781962 290.6745 112.087667 290.549805 104.231262 C 290.412638 96.374858 290.344055 88.761627 290.344055 81.391571 L 290.344055 81.391571 L 290.344055 54.19342 C 290.88029 54.006368 291.597341 53.800608 292.495209 53.576141 C 293.393097 53.351674 294.378265 53.239441 295.450714 53.239441 L 295.450714 53.239441 C 297.433523 53.239441 298.917511 53.626027 299.902679 54.3992 C 300.887848 55.159902 301.380432 56.39448 301.380432 58.102936 L 301.380432 58.102936 Z M 291.279327 125.032043 L 301.380432 122.46936 L 301.380432 121.92688 L 301.380432 134.328766 C 300.569845 134.952301 299.541026 135.488536 298.293976 135.937469 C 297.034454 136.386424 295.637767 136.610901 294.103912 136.610901 L 294.103912 136.610901 C 291.958974 136.610901 290.119578 136.1869 288.585724 135.338898 C 287.064301 134.478424 285.673838 132.925842 284.414337 130.681152 L 284.414337 130.681152 L 258.82489 87.58316 C 257.478068 85.16389 255.99408 82.495209 254.372925 79.577118 C 252.764242 76.659027 251.242839 73.878103 249.808716 71.234344 C 248.362142 68.578135 247.239797 66.395803 246.441681 64.687347 L 246.441681 64.687347 L 236.471527 67.250031 L 236.471527 55.540253 C 237.182363 54.816966 238.192474 54.230855 239.501862 53.781921 C 240.798798 53.332987 242.214203 53.108521 243.748077 53.108521 L 243.748077 53.108521 C 245.892975 53.108521 247.732371 53.538747 249.266266 54.3992 C 250.787669 55.247182 252.178121 56.793518 253.437622 59.038208 L 253.437622 59.038208 L 279.15802 102.13623 C 280.592122 104.555501 282.094808 107.224182 283.666077 110.142273 C 285.237366 113.060364 286.696411 115.847514 288.043213 118.503723 C 289.390055 121.147481 290.46876 123.323588 291.279327 125.032043 L 291.279327 125.032043 Z M 381.253876 104.698914 L 381.253876 104.698914 L 381.253876 104.698914 C 381.253876 111.345683 379.994364 117.138224 377.475342 122.076538 C 374.96877 127.014852 371.420919 130.830821 366.831787 133.524445 C 362.255107 136.218068 356.867859 137.56488 350.670044 137.56488 L 350.670044 137.56488 C 344.48466 137.56488 339.078695 136.218068 334.452148 133.524445 C 329.825602 130.830821 326.252818 127.014852 323.733795 122.076538 C 321.227203 117.138224 319.973907 111.345683 319.973907 104.698914 L 319.973907 104.698914 C 319.973907 97.964844 321.252136 92.147359 323.808594 87.24646 C 326.365031 82.358032 329.956533 78.567006 334.583099 75.873383 C 339.209646 73.179759 344.57196 71.832947 350.670044 71.832947 L 350.670044 71.832947 C 356.780558 71.832947 362.124156 73.179759 366.700836 75.873383 C 371.277517 78.567006 374.850311 82.358032 377.41922 87.24646 C 379.975657 92.147359 381.253876 97.964844 381.253876 104.698914 Z M 350.670044 80.71817 L 350.670044 80.71817 L 350.670044 80.71817 C 344.659241 80.71817 339.883046 82.850627 336.341461 87.11554 C 332.787364 91.380432 331.010315 97.241557 331.010315 104.698914 L 331.010315 104.698914 C 331.010315 112.243551 332.737467 118.123383 336.191772 122.338409 C 339.658569 126.553436 344.48466 128.66095 350.670044 128.66095 L 350.670044 128.66095 C 356.780558 128.66095 361.562988 126.528493 365.017334 122.26358 C 368.471639 117.998667 370.198792 112.143778 370.198792 104.698914 L 370.198792 104.698914 C 370.198792 97.241557 368.471639 91.380432 365.017334 87.11554 C 361.562988 82.850627 356.780558 80.71817 350.670044 80.71817 Z M 398.08905 119.513855 L 398.08905 100.246948 L 408.863586 100.246948 L 408.863586 118.840454 C 408.863586 122.431946 409.892395 124.969686 411.950012 126.453674 C 414.020081 127.925191 416.850871 128.66095 420.442383 128.66095 L 420.442383 128.66095 C 421.963786 128.66095 423.672241 128.392832 425.567749 127.856598 C 427.450806 127.320363 429.022095 126.690603 430.281616 125.967316 L 430.281616 125.967316 C 430.81783 126.516022 431.310404 127.189433 431.759338 127.987549 C 432.208272 128.798116 432.432739 129.74587 432.432739 130.830811 L 432.432739 130.830811 C 432.432739 132.801147 431.266764 134.416077 428.934814 135.675598 C 426.590332 136.93512 423.354228 137.56488 419.226501 137.56488 L 419.226501 137.56488 C 412.941386 137.56488 407.847188 136.168182 403.943909 133.374786 C 400.04067 130.593862 398.08905 125.973551 398.08905 119.513855 L 398.08905 119.513855 Z M 428.111755 83.823303 L 403.607239 83.823303 L 403.607239 74.93811 L 430.955017 74.93811 C 431.216899 75.287272 431.485006 75.867147 431.759338 76.677734 C 432.02122 77.488322 432.152161 78.34255 432.152161 79.240417 L 432.152161 79.240417 C 432.152161 80.67452 431.796753 81.796855 431.085938 82.607422 C 430.362671 83.418009 429.371277 83.823303 428.111755 83.823303 L 428.111755 83.823303 Z M 408.863586 59.449738 L 408.863586 104.287384 L 398.08905 104.287384 L 398.08905 55.540253 C 398.537984 55.3532 399.230103 55.14743 400.165405 54.922943 C 401.113159 54.698497 402.123271 54.586273 403.19574 54.586273 L 403.19574 54.586273 C 405.091248 54.586273 406.506632 54.97286 407.441895 55.746033 C 408.389689 56.506714 408.863586 57.741282 408.863586 59.449738 L 408.863586 59.449738 Z M 497.210754 105.241364 L 451.961548 111.563904 L 451.419067 103.071503 L 492.085388 97.553314 C 491.736226 92.615 490.033997 88.555857 486.978699 85.375885 C 483.923401 82.183441 479.702128 80.587219 474.31488 80.587219 L 474.31488 80.587219 C 468.753072 80.587219 464.151469 82.582499 460.510071 86.573059 C 456.868673 90.57609 455.047974 96.300039 455.047974 103.744904 L 455.047974 103.744904 L 455.047974 106.719116 C 455.684001 113.90212 458.040934 119.357961 462.118774 123.086639 C 466.209066 126.802846 471.802083 128.66095 478.897827 128.66095 L 478.897827 128.66095 C 482.6639 128.66095 486.074585 128.037425 489.129883 126.790375 C 492.185099 125.530853 494.610596 124.184041 496.406372 122.749939 L 496.406372 122.749939 C 497.391561 123.373454 498.177205 124.109212 498.763306 124.957214 C 499.349406 125.817688 499.642456 126.784149 499.642456 127.856598 L 499.642456 127.856598 C 499.642456 129.565053 498.675985 131.161275 496.743042 132.645264 C 494.81014 134.129252 492.247477 135.32018 489.055054 136.218048 C 485.875041 137.115936 482.308472 137.56488 478.355347 137.56488 L 478.355347 137.56488 C 471.446696 137.56488 465.454631 136.305359 460.37915 133.786316 C 455.30367 131.267273 451.394165 127.519897 448.650635 122.544189 C 445.919596 117.55599 444.554077 111.470388 444.554077 104.287384 L 444.554077 104.287384 C 444.554077 99.174489 445.296061 94.616526 446.780029 90.613495 C 448.251587 86.622935 450.31547 83.237193 452.97168 80.456268 C 455.615397 77.675364 458.776652 75.542918 462.455444 74.058929 C 466.146729 72.574941 470.143514 71.832947 474.445801 71.832947 L 474.445801 71.832947 C 479.920369 71.832947 484.74648 72.998932 488.924133 75.330902 C 493.101705 77.662893 496.381429 80.917694 498.763306 85.095306 C 501.145142 89.272919 502.33606 94.055349 502.33606 99.442596 L 502.33606 99.442596 C 502.33606 101.412933 501.887126 102.828328 500.989258 103.688782 C 500.09139 104.536784 498.831889 105.054311 497.210754 105.241364 L 497.210754 105.241364 Z M 554.319336 88.799042 L 591.356689 88.799042 L 591.356689 97.684265 L 554.319336 97.684265 L 554.319336 88.799042 Z M 575.868286 97.684265 L 575.868286 97.684265 L 580.170654 90.950195 C 586.281169 90.950195 591.356649 91.960307 595.397095 93.98053 C 599.4375 96.000753 602.467814 98.675669 604.488037 102.00528 C 606.50826 105.322439 607.518372 109.044881 607.518372 113.172607 L 607.518372 113.172607 C 607.518372 121.353251 604.575338 127.41391 598.68927 131.354584 C 592.815694 135.307729 584.441752 137.284302 573.567444 137.284302 L 573.567444 137.284302 C 571.148214 137.284302 568.728963 137.215708 566.309692 137.078522 C 563.87797 136.953827 561.496094 136.710653 559.164063 136.348999 C 556.832113 135.987366 554.587443 135.538432 552.430054 135.002197 L 552.430054 135.002197 C 548.66394 133.917257 546.780884 131.853394 546.780884 128.810608 L 546.780884 128.810608 L 546.780884 59.84256 C 546.780884 58.408457 547.161235 57.286123 547.921936 56.475555 C 548.682638 55.664968 549.78005 55.085083 551.214172 54.735901 L 551.214172 54.735901 C 554.26943 53.838033 557.524231 53.22698 560.978577 52.90274 C 564.432882 52.590973 568.136617 52.435089 572.089783 52.435089 L 572.089783 52.435089 C 582.240743 52.435089 590.140788 54.255788 595.789917 57.897186 C 601.451497 61.526093 604.282288 67.069224 604.282288 74.526581 L 604.282288 74.526581 C 604.282288 78.292653 603.359477 81.771912 601.513855 84.964355 C 599.680684 88.15682 596.718933 90.713277 592.628601 92.633728 C 588.550761 94.56665 583.09493 95.533112 576.261108 95.533112 L 576.261108 95.533112 L 575.063965 88.799042 C 580.987427 88.799042 585.476807 87.564463 588.532104 85.095306 C 591.57487 82.626149 593.096252 79.190531 593.096252 74.788452 L 593.096252 74.788452 C 593.096252 70.299072 591.325439 66.95698 587.783813 64.762177 C 584.242228 62.567373 579.010885 61.469971 572.089783 61.469971 L 572.089783 61.469971 C 569.034485 61.469971 566.340841 61.582204 564.00885 61.806671 C 561.6769 62.031138 559.525757 62.317952 557.55542 62.667114 L 557.55542 62.667114 L 557.55542 126.790375 C 559.700317 127.239309 562.188171 127.594716 565.018982 127.856598 C 567.849792 128.130951 570.69928 128.268127 573.567444 128.268127 L 573.567444 128.268127 C 581.024801 128.268127 586.686401 127.008616 590.552246 124.489594 C 594.40568 121.983002 596.332397 118.123383 596.332397 112.910736 L 596.332397 112.910736 C 596.332397 108.246755 594.605245 104.54302 591.15094 101.79953 C 587.696594 99.05602 582.602376 97.684265 575.868286 97.684265 Z M 683.332703 104.698914 L 683.332703 104.698914 L 683.332703 104.698914 C 683.332703 111.345683 682.079427 117.138224 679.572876 122.076538 C 677.053874 127.014852 673.506022 130.830821 668.929321 133.524445 C 664.352661 136.218068 658.965393 137.56488 652.767517 137.56488 L 652.767517 137.56488 C 646.569722 137.56488 641.157552 136.218068 636.531006 133.524445 C 631.916911 130.830821 628.350342 127.014852 625.831299 122.076538 C 623.312297 117.138224 622.052795 111.345683 622.052795 104.698914 L 622.052795 104.698914 C 622.052795 97.964844 623.33724 92.147359 625.906128 87.24646 C 628.462565 82.358032 632.054077 78.567006 636.680664 75.873383 C 641.294718 73.179759 646.657003 71.832947 652.767517 71.832947 L 652.767517 71.832947 C 658.878113 71.832947 664.221741 73.179759 668.798401 75.873383 C 673.375061 78.567006 676.94161 82.358032 679.498047 87.24646 C 682.054484 92.147359 683.332703 97.964844 683.332703 104.698914 Z M 652.767517 80.71817 L 652.767517 80.71817 L 652.767517 80.71817 C 646.756775 80.71817 641.974345 82.850627 638.420227 87.11554 C 634.878601 91.380432 633.107788 97.241557 633.107788 104.698914 L 633.107788 104.698914 C 633.107788 112.243551 634.834961 118.123383 638.289307 122.338409 C 641.743652 126.553436 646.569722 128.66095 652.767517 128.66095 L 652.767517 128.66095 C 658.878113 128.66095 663.660543 126.528493 667.114807 122.26358 C 670.569153 117.998667 672.296326 112.143778 672.296326 104.698914 L 672.296326 104.698914 C 672.296326 97.241557 670.569153 91.380432 667.114807 87.11554 C 663.660543 82.850627 658.878113 80.71817 652.767517 80.71817 Z M 718.761414 100.658478 L 718.761414 100.658478 L 720.781555 99.704498 C 724.460347 94.953237 727.914693 90.513743 731.144592 86.386017 C 734.386902 82.245799 737.710286 77.706543 741.114746 72.76825 L 741.114746 72.76825 C 741.4764 72.680929 741.744507 72.637268 741.919067 72.637268 C 742.10612 72.637268 742.330587 72.637268 742.592468 72.637268 L 742.592468 72.637268 C 744.487976 72.637268 745.971985 73.067505 747.044495 73.927979 C 748.116923 74.775981 748.653137 75.917033 748.653137 77.351135 L 748.653137 77.351135 C 748.653137 78.336304 748.453613 79.277822 748.054565 80.17569 C 747.655518 81.073578 747.007039 82.108632 746.109131 83.280853 L 746.109131 83.280853 C 743.053914 87.046926 739.930074 90.862895 736.73761 94.72876 C 733.557597 98.594604 730.439982 102.366923 727.384766 106.045715 L 727.384766 106.045715 L 723.88678 109.001221 C 720.557149 113.4033 717.140238 117.961263 713.636047 122.67511 C 710.144267 127.388957 706.777222 131.99057 703.534912 136.47995 L 703.534912 136.47995 C 703.447591 136.47995 703.160767 136.47995 702.674438 136.47995 C 702.175659 136.47995 701.838969 136.47995 701.664368 136.47995 L 701.664368 136.47995 C 699.594259 136.47995 698.041667 136.031016 697.006592 135.133148 C 695.971598 134.23526 695.454102 133.112915 695.454102 131.766113 L 695.454102 131.766113 C 695.454102 131.042806 695.616211 130.282104 695.94043 129.484009 C 696.252157 128.673421 696.987895 127.551076 698.147644 126.116974 L 698.147644 126.116974 C 701.389994 121.802195 704.806905 117.55599 708.398376 113.378357 C 711.989889 109.200745 715.444234 104.960785 718.761414 100.658478 Z M 725.364502 100.920349 L 725.364502 100.920349 L 727.777527 102.54776 C 731.468811 107.386302 735.172546 112.162496 738.888733 116.876343 C 742.617411 121.59019 746.321167 126.328969 750 131.092682 L 750 131.092682 C 749.825399 132.801158 749.245504 134.14798 748.260315 135.133148 C 747.275167 136.118317 745.972005 136.610901 744.35083 136.610901 L 744.35083 136.610901 C 742.916707 136.610901 741.707052 136.23055 740.721863 135.469849 C 739.724264 134.709127 738.601929 133.518188 737.354858 131.897034 L 737.354858 131.897034 C 734.661255 128.130961 731.805522 124.134176 728.787659 119.906677 C 725.782288 115.69165 722.93278 111.744741 720.239136 108.065948 L 720.239136 108.065948 L 717.15271 105.241364 C 713.199544 100.477651 709.514506 95.938395 706.097595 91.623596 C 702.693136 87.321289 699.19517 82.881795 695.603699 78.305115 L 695.603699 78.305115 C 695.952861 76.509379 696.626261 75.112681 697.623901 74.115021 C 698.60909 73.129852 699.818746 72.637268 701.252869 72.637268 L 701.252869 72.637268 C 702.774231 72.637268 703.983866 73.017629 704.881775 73.778351 C 705.779602 74.551524 706.67747 75.561625 707.575378 76.808655 L 707.575378 76.808655 C 710.268982 80.400167 713.099772 84.328379 716.067749 88.593292 C 719.035726 92.858185 722.134644 96.967204 725.364502 100.920349 Z" />
    </g>
</svg>
